# xmcd
#
# Track frame offsets:
#	150
#	18050
#	33543
#	47970
#	65533
#	82830
#	98560
#	117177
#
# Disc length: 1800 seconds
#
# Revision: 0
# Processed by: cddbd v1.5.1PL0 Copyright (c) Steve Scherf et al.
# Submitted via: EasyCDDAExtractor 7.5.0.1
#
DISCID=58070608
DTITLE=Oswaldir and Carlos Magrão - Tiragem Limitada R$7,90
DYEAR=1900
DGENRE=
TTITLE0=China Atrevida
TTITLE1=Amigos do Rio Grande
TTITLE2=Mistério do Coração
TTITLE3=Destino de Peão
TTITLE4=Uma Loiraça
TTITLE5=Matando no Cansaço
TTITLE6=Vaneirinha do Amor
TTITLE7=A Senha
EXTD=
EXTT0=
EXTT1=
EXTT2=
EXTT3=
EXTT4=
EXTT5=
EXTT6=
EXTT7=
PLAYORDER=
